<?xml version="1.0" encoding="UTF-8"?>
<svg xmlns="http://www.w3.org/2000/svg" viewBox="0 0 1412.26 241.88">
  <defs>
    <style>
      .cls-1 {
        fill: #33506d;
        stroke-width: 0px;
      }

      .cls-2 {
        stroke: #33506d;
        stroke-width: 3px;
      }

      .cls-2, .cls-3 {
        fill: none;
        stroke-miterlimit: 10;
      }

      .cls-3 {
        stroke: #ff6f48;
        stroke-width: 8px;
      }
    </style>
  </defs>
  <g id="_圖層_1" data-name="圖層 1">
    <g>
      <g>
        <circle class="cls-3" cx="21.02" cy="86.69" r="17.02"/>
        <polyline class="cls-3" points="77.94 240.38 77.94 155.97 31.96 100.72"/>
      </g>
      <g>
        <circle class="cls-3" cx="72.84" cy="21.02" r="17.02"/>
        <polyline class="cls-3" points="101.21 240.38 101.21 145.93 72.92 117.64 72.92 38.03"/>
      </g>
      <g>
        <circle class="cls-3" cx="124.98" cy="73.74" r="17.02"/>
        <line class="cls-3" x1="124.98" y1="240.38" x2="124.98" y2="90.75"/>
      </g>
      <g>
        <circle class="cls-3" cx="178.3" cy="94.21" r="17.02"/>
        <polyline class="cls-3" points="147.26 240.38 147.26 191.36 178.56 160.07 178.56 111.23"/>
      </g>
    </g>
  </g>
  <g id="_圖層_2" data-name="圖層 2">
    <line class="cls-2" x1="207.25" y1="240.38" x2="1411.2" y2="240.38"/>
    <g>
      <path class="cls-1" d="M426.04,209.58c-20.58,0-36.67-6.59-48.27-19.77-11.6-13.18-17.4-32.08-17.4-56.69V39.98h33.77v92.18c0,15.72,2.83,27.12,8.49,34.18,5.66,7.07,13.53,10.6,23.62,10.6s18.16-3.53,23.83-10.6c5.66-7.06,8.49-18.46,8.49-34.18V39.98h32.94v93.14c0,24.62-5.8,43.51-17.4,56.69-11.6,13.18-27.62,19.77-48.06,19.77Z"/>
      <path class="cls-1" d="M552.37,206.72V71.42h-41.04v-31.44h111.76v31.44h-41.04v135.3h-29.68Z"/>
      <path class="cls-1" d="M718.05,209.58c-11.9,0-22.87-2.14-32.9-6.43-10.04-4.29-18.78-10.32-26.23-18.1-7.45-7.78-13.22-16.91-17.31-27.39-4.09-10.48-6.13-21.91-6.13-34.3s2.04-24.02,6.13-34.42c4.08-10.4,9.85-19.49,17.31-27.27,7.45-7.78,16.16-13.82,26.13-18.1,9.96-4.29,20.89-6.43,32.79-6.43s22.82,2.11,32.79,6.31c9.96,4.21,18.67,10.21,26.12,17.98,7.45,7.78,13.22,16.91,17.31,27.39,4.08,10.48,6.13,22,6.13,34.54s-2.04,23.86-6.13,34.42c-4.09,10.56-9.86,19.73-17.31,27.51-7.45,7.78-16.16,13.78-26.12,17.98-9.97,4.21-20.82,6.31-32.58,6.31ZM717.83,176.95c6.74,0,12.93-1.31,18.6-3.93,5.66-2.62,10.64-6.35,14.94-11.2,4.3-4.84,7.63-10.48,10-16.91,2.36-6.43,3.55-13.61,3.55-21.56s-1.18-15.13-3.55-21.56c-2.37-6.43-5.7-12.07-10-16.91-4.3-4.84-9.28-8.57-14.94-11.19-5.66-2.62-11.86-3.93-18.6-3.93s-12.98,1.31-18.71,3.93c-5.73,2.62-10.72,6.35-14.94,11.19-4.23,4.85-7.53,10.48-9.89,16.91-2.37,6.43-3.55,13.62-3.55,21.56s1.18,15.12,3.55,21.56c2.36,6.43,5.66,12.07,9.89,16.91,4.23,4.84,9.21,8.57,14.94,11.2,5.73,2.62,11.97,3.93,18.71,3.93Z"/>
      <path class="cls-1" d="M813,206.72l20.27-166.74h40.42l32.87,125.81h0l32.73-125.81h40.49l20.34,166.74h-31.96l-8.86-136.97h0l-37.53,138.33h-31.44l-35.59-138.33h0l-11.07,136.97h-30.67Z"/>
      <path class="cls-1" d="M1215.57,206.72V71.42h-41.04v-31.44h111.76v31.44h-41.04v135.3h-29.68Z"/>
      <path class="cls-1" d="M1312.96,206.72V39.98h96.92v30.97h-67.42v104.81h69.8v30.97h-99.3ZM1340.26,132.23v-30.25h61.74v30.25h-61.74Z"/>
      <path class="cls-1" d="M1017.77,207.4l51.06-166.74h41.71l51.06,166.74h-31.15l-47.09-147.21h11.91l-47.09,147.21h-30.41ZM1046.54,171.67l7.51-29.3,64.54-10.65,7.63,27.36-79.68,12.59Z"/>
      <path class="cls-1" d="M206.19,206.72l51.06-166.74h41.71l51.06,166.74h-31.15l-47.09-147.21h11.91l-47.09,147.21h-30.41ZM234.95,170.99l7.51-29.3,64.54-10.65,7.63,27.36-79.68,12.59Z"/>
    </g>
  </g>
</svg>